<svg xmlns="http://www.w3.org/2000/svg" width="17.023" height="17.028" viewBox="0 0 17.023 17.028">
  <g id="products" transform="translate(-1056.697 54.5)">
    <path id="Path_811" data-name="Path 811" d="M1073.217-46.116q-3.827-3.83-7.657-7.657a2.333,2.333,0,0,0-1.667-.719c-1.874-.015-3.748-.006-5.622,0a1.37,1.37,0,0,0-.239.024,1.572,1.572,0,0,0-1.093.732,1.646,1.646,0,0,0-.243.917c0,.9,0,1.809,0,2.713h0c0,.911,0,1.823,0,2.735a2.373,2.373,0,0,0,.7,1.717q3.831,3.843,7.671,7.675a1.589,1.589,0,0,0,2.34-.006q2.9-2.9,5.8-5.8A1.59,1.59,0,0,0,1073.217-46.116Zm-.711,1.519c-.033.039-.071.073-.107.109q-2.83,2.83-5.655,5.663a.617.617,0,0,1-1.005.006q-3.266-3.29-6.551-6.561c-.318-.319-.635-.639-.957-.954a1.491,1.491,0,0,1-.467-1.116q0-2.657,0-5.314a1.479,1.479,0,0,1,.007-.2.523.523,0,0,1,.479-.463c.072-.007.146,0,.219,0h2.646c.853,0,1.706.009,2.558,0a1.617,1.617,0,0,1,1.231.506q3,3.014,6.013,6.017l1.452,1.452c.046.046.095.091.137.141A.528.528,0,0,1,1072.506-44.6Z" transform="translate(0 0)" fill="#4e4f59"/>
    <path id="Path_812" data-name="Path 812" d="M1067.639-44.61a1.064,1.064,0,0,0-1.054,1.06,1.066,1.066,0,0,0,1.063,1.073,1.064,1.064,0,0,0,1.065-1.071A1.064,1.064,0,0,0,1067.639-44.61Z" transform="translate(-7.222 -7.224)" fill="#4e4f59"/>
  </g>
</svg>
